<svg aria-hidden="true" style="position: absolute; width: 0; height: 0; overflow: hidden;" version="1.1" xmlns="http://www.w3.org/2000/svg" xmlns:xlink="http://www.w3.org/1999/xlink">
<defs>
<symbol id="icon-left_arrow_arrow_icon" viewBox="0 0 32 32">
<path d="M14.667 6.114l-9.886 9.886 9.886 9.886 1.886-1.886-6.667-6.667h16.781v-2.667h-16.781l6.667-6.667-1.886-1.886z"></path>
</symbol>
<symbol id="icon-arrow-right_icon" viewBox="0 0 32 32">
<path d="M4 17.333h20.781l-7.057 7.057c-0.521 0.521-0.521 1.365 0 1.885s1.365 0.521 1.886 0l9.333-9.333c0.521-0.521 0.521-1.365 0-1.885l-9.333-9.333c-0.26-0.26-0.602-0.391-0.943-0.391s-0.682 0.13-0.943 0.391c-0.521 0.521-0.521 1.365 0 1.885l7.057 7.057h-20.781c-0.736 0-1.333 0.597-1.333 1.333s0.597 1.333 1.333 1.333z"></path>
</symbol>
</defs>
</svg>
