<svg width="142" height="33" viewBox="0 0 142 33" fill="none" xmlns="http://www.w3.org/2000/svg">
<path d="M7.79744 23.24C11.2774 23.24 14.2774 20.24 14.2774 14.6C14.2774 8.96 11.2774 5.96 7.79744 5.96C4.31744 5.96 1.31744 8.96 1.31744 14.6C1.31744 20.24 4.31744 23.24 7.79744 23.24ZM7.79744 21.44C5.39744 21.44 3.23744 19.16 3.23744 14.6C3.23744 10.04 5.39744 7.76 7.79744 7.76C10.1974 7.76 12.3574 10.04 12.3574 14.6C12.3574 19.16 10.1974 21.44 7.79744 21.44ZM19.8068 23H21.7268V6.2H19.8068V7.4C19.8068 7.88 19.5668 8.12 19.0868 8.12H16.2068V9.8H19.8068V23Z" fill="#BDBDBD"/>
<path d="M120.701 23.24C124.181 23.24 127.181 20.24 127.181 14.6C127.181 8.96 124.181 5.96 120.701 5.96C117.221 5.96 114.221 8.96 114.221 14.6C114.221 20.24 117.221 23.24 120.701 23.24ZM120.701 21.44C118.301 21.44 116.141 19.16 116.141 14.6C116.141 10.04 118.301 7.76 120.701 7.76C123.101 7.76 125.261 10.04 125.261 14.6C125.261 19.16 123.101 21.44 120.701 21.44ZM129.83 23H140.39V21.2H132.59V21.08L137.99 15.44C139.166 14.216 140.03 13.04 140.03 11C140.03 8 137.87 5.96 134.87 5.96C131.87 5.96 129.71 8.24 129.71 11.36H131.63C131.63 9.2 133.07 7.76 134.87 7.76C136.79 7.76 138.11 9.08 138.11 11C138.11 12.32 137.63 13.112 136.67 14.12L129.83 21.44V23Z" fill="#BDBDBD"/>
<line y1="-1" x2="43.8219" y2="-1" transform="matrix(-0.706805 0.707408 -0.706805 -0.707408 80.9284 0)" stroke="#E0E0E0" stroke-width="2"/>
</svg>
